<svg width="67" height="69" viewBox="0 0 67 69" fill="none" xmlns="http://www.w3.org/2000/svg">
<path d="M56.6441 0H9.89565C4.43043 0 0 4.41622 0 9.8639V58.6501C0 64.0978 4.43043 68.514 9.89565 68.514H56.6441C62.1093 68.514 66.5397 64.0978 66.5397 58.6501V9.8639C66.5397 4.41622 62.1093 0 56.6441 0Z" fill="#3699FF"/>
<path d="M24.4926 64.1132H15.2246V4.56873H24.4926V23.4231C27.3951 21.6468 31.2329 20.4333 36.2882 20.4333C42.2828 20.4333 46.3987 22.1129 49.4908 24.3553C56.703 29.5791 57.4528 38.7291 57.4528 41.6224V42.9283C57.4528 45.7292 56.7956 54.875 49.5877 60.1954C46.4956 62.4336 42.2828 64.1132 36.2882 64.1132C31.2329 64.1132 27.3951 62.8997 24.4926 61.1276V64.1132ZM28.7053 52.8216C30.483 54.1276 32.918 54.875 36.2882 54.875C39.7552 54.875 42.2828 54.1276 44.0606 52.8216C48.088 49.836 48.1806 44.5156 48.1806 42.9283V41.6224C48.1806 39.9427 47.9953 34.7147 43.9679 31.7291C42.2828 30.5155 39.7552 29.6757 36.2882 29.6757C32.918 29.6757 30.483 30.4231 28.7053 31.7291C24.6779 34.6223 24.4926 39.8461 24.4926 41.53V43.0207C24.4926 44.7004 24.6779 49.9284 28.7053 52.8216Z" fill="white"/>
</svg>
